<svg xmlns="http://www.w3.org/2000/svg" width="44" height="44" viewBox="0 0 44 44" fill="none"><rect width="44" height="44" rx="22" fill="#F4FFF8"></rect><path d="M26 18C27.5913 18 29.1174 18.6321 30.2426 19.7574C31.3678 20.8826 32 22.4087 32 24V31H28V24C28 23.4696 27.7893 22.9609 27.4142 22.5858C27.0391 22.2107 26.5304 22 26 22C25.4695 22 24.9608 22.2107 24.5858 22.5858C24.2107 22.9609 24 23.4696 24 24V31H20V24C20 22.4087 20.6321 20.8826 21.7573 19.7574C22.8825 18.6321 24.4087 18 26 18Z" fill="#041B15"></path><path d="M16 19H12V31H16V19Z" fill="#041B15"></path><path d="M14 16.0002C15.1045 16.0002 16 15.1048 16 14.0002C16 12.8957 15.1045 12.0002 14 12.0002C12.8954 12.0002 12 12.8957 12 14.0002C12 15.1048 12.8954 16.0002 14 16.0002Z" fill="#041B15"></path></svg>