<svg xmlns="http://www.w3.org/2000/svg" width="44" height="44" viewBox="0 0 44 44" fill="none"><rect width="44" height="44" rx="22" fill="#F4FFF8"></rect><path d="M26.19 12.0002H17.81C14.17 12.0002 12 14.1702 12 17.8102V26.1802C12 29.8302 14.17 32.0002 17.81 32.0002H26.18C29.82 32.0002 31.99 29.8302 31.99 26.1902V17.8102C32 14.1702 29.83 12.0002 26.19 12.0002ZM22 25.8802C19.86 25.8802 18.12 24.1402 18.12 22.0002C18.12 19.8602 19.86 18.1202 22 18.1202C24.14 18.1202 25.88 19.8602 25.88 22.0002C25.88 24.1402 24.14 25.8802 22 25.8802ZM27.92 16.8802C27.87 17.0002 27.8 17.1102 27.71 17.2102C27.61 17.3002 27.5 17.3702 27.38 17.4202C27.26 17.4702 27.13 17.5002 27 17.5002C26.73 17.5002 26.48 17.4002 26.29 17.2102C26.2 17.1102 26.13 17.0002 26.08 16.8802C26.03 16.7602 26 16.6302 26 16.5002C26 16.3702 26.03 16.2402 26.08 16.1202C26.13 15.9902 26.2 15.8902 26.29 15.7902C26.52 15.5602 26.87 15.4502 27.19 15.5202C27.26 15.5302 27.32 15.5502 27.38 15.5802C27.44 15.6002 27.5 15.6302 27.56 15.6702C27.61 15.7002 27.66 15.7502 27.71 15.7902C27.8 15.8902 27.87 15.9902 27.92 16.1202C27.97 16.2402 28 16.3702 28 16.5002C28 16.6302 27.97 16.7602 27.92 16.8802Z" fill="#041B15"></path></svg>